<svg xmlns="http://www.w3.org/2000/svg" xmlns:xlink="http://www.w3.org/1999/xlink" contentStyleType="text/css" data-diagram-type="STATE" height="768px" preserveAspectRatio="none" style="width:744px;height:768px;background:#FEFEFE;" version="1.1" viewBox="0 0 744 768" width="744px" zoomAndPan="magnify"><?plantuml $version$?><defs/><g><rect fill="#FEFEFE" height="768" style="stroke:none;stroke-width:1;" width="744" x="0" y="0"/><g class="title" data-source-line="2"><text fill="#000000" font-family="sans-serif" font-size="14" font-weight="700" lengthAdjust="spacing" textLength="326.7726" x="205.5738" y="23.0059">Diagrama de Estados &#8212; Ciclo de Vida del Pedido</text><text fill="#000000" font-family="sans-serif" font-size="14" font-weight="700" lengthAdjust="spacing" textLength="164.9613" x="286.4795" y="39.8059">Sistema Braille Inclusivo</text></g><g class="entity" data-qualified-name="Pendiente" data-source-line="19" id="ent0001"><rect fill="#EFEFEF" height="70.3998" rx="12.5" ry="12.5" style="stroke:#545454;stroke-width:0.5;" width="233.1771" x="166.55" y="171.5999"/><line style="stroke:#545454;stroke-width:0.5;" x1="166.55" x2="399.7271" y1="198.3998" y2="198.3998"/><text fill="#000000" font-family="sans-serif" font-size="14" lengthAdjust="spacing" textLength="63.0417" x="251.6177" y="189.6058">Pendiente</text><text fill="#000000" font-family="sans-serif" font-size="14" lengthAdjust="spacing" textLength="154.8533" x="171.55" y="216.4057">Estado inicial del pedido.</text><text fill="#000000" font-family="sans-serif" font-size="14" lengthAdjust="spacing" textLength="213.1771" x="171.55" y="233.2057">Espera revisi&#243;n del Administrador.</text></g><g class="entity" data-qualified-name="EP" data-source-line="21" id="ent0002"><rect fill="#EFEFEF" height="70.3998" rx="12.5" ry="12.5" style="stroke:#545454;stroke-width:0.5;" width="194.2853" x="7" y="332.9999"/><line style="stroke:#545454;stroke-width:0.5;" x1="7" x2="201.2853" y1="359.7998" y2="359.7998"/><text fill="#000000" font-family="sans-serif" font-size="14" lengthAdjust="spacing" textLength="81.6897" x="63.2978" y="351.0058">En impresi&#243;n</text><text fill="#000000" font-family="sans-serif" font-size="14" lengthAdjust="spacing" textLength="122.1355" x="12" y="377.8057">Administrador inicia</text><text fill="#000000" font-family="sans-serif" font-size="14" lengthAdjust="spacing" textLength="174.2853" x="12" y="394.6057">el proceso de impresi&#243;n 3D.</text></g><g class="entity" data-qualified-name="Comp" data-source-line="23" id="ent0003"><rect fill="#F1F1F1" height="70.3998" rx="12.5" ry="12.5" style="stroke:#545454;stroke-width:0.5;" width="207.5152" x="30.39" y="533.7999"/><line style="stroke:#545454;stroke-width:0.5;" x1="30.39" x2="237.9052" y1="560.5998" y2="560.5998"/><text fill="#000000" font-family="sans-serif" font-size="14" lengthAdjust="spacing" textLength="75.4737" x="96.4108" y="551.8058">Completado</text><text fill="#000000" font-family="sans-serif" font-size="14" lengthAdjust="spacing" textLength="128.3795" x="35.39" y="578.6057">Impresi&#243;n finalizada.</text><text fill="#000000" font-family="sans-serif" font-size="14" lengthAdjust="spacing" textLength="187.5152" x="35.39" y="595.4057">Ficha t&#225;ctil lista para entregar.</text></g><g class="entity" data-qualified-name="Rech" data-source-line="25" id="ent0004"><rect fill="#F1F1F1" height="70.3998" rx="12.5" ry="12.5" style="stroke:#545454;stroke-width:0.5;" width="160.8254" x="256.73" y="433.3999"/><line style="stroke:#545454;stroke-width:0.5;" x1="256.73" x2="417.5554" y1="460.1998" y2="460.1998"/><text fill="#000000" font-family="sans-serif" font-size="14" lengthAdjust="spacing" textLength="70.8117" x="301.7369" y="451.4058">Rechazado</text><text fill="#000000" font-family="sans-serif" font-size="14" lengthAdjust="spacing" textLength="140.0414" x="261.73" y="478.2057">Administrador rechaza</text><text fill="#000000" font-family="sans-serif" font-size="14" lengthAdjust="spacing" textLength="140.8254" x="261.73" y="495.0057">la solicitud con motivo.</text></g><g class="start_entity" data-qualified-name=".start." data-source-line="17" id="ent0005"><ellipse cx="283.14" cy="70.5999" fill="#222222" rx="10" ry="10" style="stroke:#222222;stroke-width:1;"/></g><g class="end_entity" data-qualified-name=".end." data-source-line="34" id="ent0010"><ellipse cx="337.14" cy="709.1999" fill="none" rx="11" ry="11" style="stroke:#222222;stroke-width:1;"/><ellipse cx="337.14" cy="709.1999" fill="#222222" rx="6" ry="6" style="stroke:#222222;stroke-width:1;"/></g><g class="entity" data-qualified-name="GMN14" data-source-line="41" id="ent0015"><path d="M434.36,170.5999 L434.36,202.7999 L399.94,206.7999 L434.36,210.7999 L434.36,242.9999 A0,0 0 0 0 434.36,242.9999 L729.9203,242.9999 A0,0 0 0 0 729.9203,242.9999 L729.9203,180.5999 L719.9203,170.5999 L434.36,170.5999 A0,0 0 0 0 434.36,170.5999" fill="#FAFAFA" style="stroke:#181818;stroke-width:0.5;"/><path d="M719.9203,170.5999 L719.9203,180.5999 L729.9203,180.5999 L719.9203,170.5999" fill="#FAFAFA" style="stroke:#181818;stroke-width:0.5;"/><text fill="#000000" font-family="sans-serif" font-size="13" font-weight="700" lengthAdjust="spacing" textLength="132.2232" x="440.36" y="187.6769">Transiciones v&#225;lidas:</text><text fill="#000000" font-family="sans-serif" font-size="13" lengthAdjust="spacing" textLength="141.5832" x="440.36" y="203.2769">&#8594; En impresi&#243;n (Admin)</text><text fill="#000000" font-family="sans-serif" font-size="13" lengthAdjust="spacing" textLength="131.4821" x="440.36" y="218.8769">&#8594; Rechazado (Admin)</text><text fill="#000000" font-family="sans-serif" font-size="13" lengthAdjust="spacing" textLength="274.5603" x="440.36" y="234.4769">&#8594; Cancelado (Solicitante, solo si es Pendiente)</text></g><g class="entity" data-qualified-name="GMN17" data-source-line="48" id="ent0018"><path d="M6.76,665.1999 L6.76,753.1999 A0,0 0 0 0 6.76,753.1999 L261.5262,753.1999 A0,0 0 0 0 261.5262,753.1999 L261.5262,675.1999 L251.5262,665.1999 L138.14,665.1999 L134.14,604.5199 L130.14,665.1999 L6.76,665.1999 A0,0 0 0 0 6.76,665.1999" fill="#FAFAFA" style="stroke:#181818;stroke-width:0.5;"/><path d="M251.5262,665.1999 L251.5262,675.1999 L261.5262,675.1999 L251.5262,665.1999" fill="#FAFAFA" style="stroke:#181818;stroke-width:0.5;"/><text fill="#000000" font-family="sans-serif" font-size="13" font-weight="700" lengthAdjust="spacing" textLength="111.9691" x="12.76" y="682.2769">Regla de negocio:</text><text fill="#000000" font-family="sans-serif" font-size="13" lengthAdjust="spacing" textLength="196.5602" x="12.76" y="697.8769">Solo se puede cancelar un pedido</text><text fill="#000000" font-family="sans-serif" font-size="13" lengthAdjust="spacing" textLength="132.0932" x="12.76" y="713.4769">en estado "Pendiente".</text><text fill="#000000" font-family="sans-serif" font-size="13" lengthAdjust="spacing" textLength="233.7662" x="12.76" y="729.0769">Una vez "En impresi&#243;n" o "Completado",</text><text fill="#000000" font-family="sans-serif" font-size="13" lengthAdjust="spacing" textLength="100.4381" x="12.76" y="744.6769">no hay retroceso.</text></g><!--link *start* to Pendiente--><g class="link" data-entity-1="ent0005" data-entity-2="ent0001" data-link-type="dependency" data-source-line="17" id="lnk6"><path d="M283.14,80.8199 C283.14,99.1799 283.14,136.1299 283.14,166.3599" fill="none" id="*start*-to-Pendiente" style="stroke:#181818;stroke-width:1;"/><polygon fill="#181818" points="283.14,171.3599,287.14,162.3599,283.14,166.3599,279.14,162.3599,283.14,171.3599" style="stroke:#181818;stroke-width:1;stroke-linejoin:miter;stroke-miterlimit:10;"/><text fill="#000000" font-family="sans-serif" font-size="12" font-weight="700" lengthAdjust="spacing" textLength="74.0165" x="322.8223" y="122.7479">Crear pedido</text><text fill="#000000" font-family="sans-serif" font-size="12" lengthAdjust="spacing" textLength="151.3811" x="284.14" y="137.148">Solicitante confirma solicitud</text></g><!--link Pendiente to EP--><g class="link" data-entity-1="ent0001" data-entity-2="ent0002" data-link-type="dependency" data-source-line="28" id="lnk7"><path d="M166.21,226.3799 C140.76,236.0799 116.79,250.7699 101.14,272.9999 C89.09,290.1299 88.882,308.7725 92.642,328.0325" fill="none" id="Pendiente-to-EP" style="stroke:#181818;stroke-width:1;"/><polygon fill="#181818" points="93.6,332.9399,95.8014,323.3402,92.642,328.0325,87.9497,324.873,93.6,332.9399" style="stroke:#181818;stroke-width:1;stroke-linejoin:miter;stroke-miterlimit:10;"/><text fill="#000000" font-family="sans-serif" font-size="12" font-weight="700" lengthAdjust="spacing" textLength="133.3689" x="104.066" y="285.1479">Admin actualiza estado</text><text fill="#000000" font-family="sans-serif" font-size="12" lengthAdjust="spacing" textLength="137.2209" x="102.14" y="299.548">"Cambiar a En impresi&#243;n"</text></g><!--link Pendiente to Rech--><g class="link" data-entity-1="ent0001" data-entity-2="ent0004" data-link-type="dependency" data-source-line="30" id="lnk8"><path d="M281.26,242.2999 C280.8,252.2099 280.37,263.0299 280.14,272.9999 C279.84,286.3299 277.93,289.8499 280.14,302.9999 C287.97,349.5199 305.4509,395.8739 319.4609,428.5739" fill="none" id="Pendiente-to-Rech" style="stroke:#181818;stroke-width:1;"/><polygon fill="#181818" points="321.43,433.1699,321.5624,423.3219,319.4609,428.5739,314.2089,426.4724,321.43,433.1699" style="stroke:#181818;stroke-width:1;stroke-linejoin:miter;stroke-miterlimit:10;"/><text fill="#000000" font-family="sans-serif" font-size="12" font-weight="700" lengthAdjust="spacing" textLength="85.3566" x="313.1502" y="285.1479">Admin rechaza</text><text fill="#000000" font-family="sans-serif" font-size="12" lengthAdjust="spacing" textLength="149.3771" x="281.14" y="299.548">(registra motivo de rechazo)</text></g><!--link EP to Comp--><g class="link" data-entity-1="ent0002" data-entity-2="ent0003" data-link-type="dependency" data-source-line="32" id="lnk9"><path d="M93.62,403.6699 C86.88,431.2999 81.11,470.7799 91.14,503.7999 C94.3,514.1999 97.0314,520.2565 103.0214,529.4065" fill="none" id="EP-to-Comp" style="stroke:#181818;stroke-width:1;"/><polygon fill="#181818" points="105.76,533.5899,104.1772,523.869,103.0214,529.4065,97.4839,528.2508,105.76,533.5899" style="stroke:#181818;stroke-width:1;stroke-linejoin:miter;stroke-miterlimit:10;"/><text fill="#000000" font-family="sans-serif" font-size="12" font-weight="700" lengthAdjust="spacing" textLength="81.3486" x="124.7442" y="465.7479">Admin finaliza</text><text fill="#000000" font-family="sans-serif" font-size="12" lengthAdjust="spacing" textLength="146.557" x="92.14" y="480.148">"Marcar como Completado"</text></g><!--link Pendiente to *end*--><g class="link" data-entity-1="ent0001" data-entity-2="ent0010" data-link-type="dependency" data-source-line="34" id="lnk11"><path d="M399.93,240.1999 C413.82,248.7099 426.21,259.4599 435.14,272.9999 C532.75,421.0799 380.2267,648.4187 346.3567,695.5787" fill="none" id="Pendiente-to-*end*" style="stroke:#181818;stroke-width:1;"/><polygon fill="#181818" points="343.44,699.6399,351.939,694.6631,346.3567,695.5787,345.4411,689.9964,343.44,699.6399" style="stroke:#181818;stroke-width:1;stroke-linejoin:miter;stroke-miterlimit:10;"/><text fill="#000000" font-family="sans-serif" font-size="12" font-weight="700" lengthAdjust="spacing" textLength="108.0488" x="463.84" y="465.7479">Solicitante cancela</text><text fill="#000000" font-family="sans-serif" font-size="12" lengthAdjust="spacing" textLength="70.6925" x="482.5181" y="480.148">( SoftDelete )</text></g><!--link Comp to *end*--><g class="link" data-entity-1="ent0003" data-entity-2="ent0010" data-link-type="dependency" data-source-line="36" id="lnk12"><path d="M188.34,604.5399 C215.8,622.2999 249.51,644.5099 279.14,665.1999 C297.03,677.6899 313.4165,690.0248 324.6365,698.5948" fill="none" id="Comp-to-*end*" style="stroke:#181818;stroke-width:1;"/><polygon fill="#181818" points="328.61,701.6299,323.8857,692.988,324.6365,698.5948,319.0297,699.3456,328.61,701.6299" style="stroke:#181818;stroke-width:1;stroke-linejoin:miter;stroke-miterlimit:10;"/></g><!--link Rech to *end*--><g class="link" data-entity-1="ent0004" data-entity-2="ent0010" data-link-type="dependency" data-source-line="37" id="lnk13"><path d="M337.14,504.2899 C337.14,559.6099 337.14,659.9299 337.14,692.9999" fill="none" id="Rech-to-*end*" style="stroke:#181818;stroke-width:1;"/><polygon fill="#181818" points="337.14,697.9999,341.14,688.9999,337.14,692.9999,333.14,688.9999,337.14,697.9999" style="stroke:#181818;stroke-width:1;stroke-linejoin:miter;stroke-miterlimit:10;"/></g><?plantuml-src RLHBRjim4Dtp50DdqKH8N3HDYjPm33Ys16JH98ZTRkekQ6bi4w58WwGTr4M1hdg0eXV86Ng4t2GdwP2IBScDlP4ud_VcFOxilL1BRdWEkLOwNHYT8pYpGkQ4amX3mUSKvP0XnDRnJ5ju_la71YALsXz-5faFIhZ5J6HweaR2EgI2IyE5f0vNAfKhAzQQCRi3c_BqVcxqIcK3BRM1WoJs_rg6NH3MWr1pc75fiHvnt66YbHk93SARirg86wCVgj0fso-3xmpeTzc4xtPvweXXhmS7yVlaFFxmSjPCA2vzKfB4bt7ySf9G8XL5MlmsEKs6HPes6PfosBFpy_wxC_Q3iLTmSN41yMZS7zwC_3Fx4ds5avCUoQaoWOeeTw0xxGqCSWFBe77tzRH7Ecj9G8xxb5IhcJ0akYqELnbD7kQjsjI6x9HMGiar-5VqRazKR9TeE1XS2okU_geGxMSv9LjdgCoqjzrRiGAHBms6n1Pm2_5j4wbHM09EbCSpEaKRxb3L0juEg-O3dIybUgAXit-5oeGEN5LbuL1iUCPfW4Ia2mxkwP5OI904pi7V0I0T3CvvZVyTKkfcY-3V6WXDygP8dYXP4zfhJxlZvsrl_HpVzQz7LuEhc-kuCBLomLjB4dKWYa9p8AbMWJfWy2IA9geruFbKaDyScWAplKw1SDMh9EXR7DAWWNZ9pSjSXFKHOyJ0bmT5g_AjY872HsvIOf3gN4FDY7q6_hhw3etRo5MAig018prpGwHg108EY6KT2-otBwLqrpVZVg6PqbHYn7pXGC-gUqpR54LZmvKbFAtGmlhfKT97o7QYY8BFltutHOF3CDrH6TivldS-A4Zxyzeinzve3LQGEnM78qPFu0coWkPKEwTppzCF62ZUuLo6hwR2kIQc1RjHw8QmN66s4yh0IfNhHoceofi0hHrWgqs1Juh36ZV_BPrkRCenPIeD2_wD_7R5ZhKhlly0?></g></svg>