<svg xmlns="http://www.w3.org/2000/svg" xmlns:xlink="http://www.w3.org/1999/xlink" contentStyleType="text/css" data-diagram-type="STATE" height="807px" preserveAspectRatio="none" style="width:807px;height:807px;background:#FEFEFE;" version="1.1" viewBox="0 0 807 807" width="807px" zoomAndPan="magnify"><?plantuml $version$?><defs/><g><rect fill="#FEFEFE" height="807" style="stroke:none;stroke-width:1;" width="807" x="0" y="0"/><g class="title" data-source-line="2"><text fill="#000000" font-family="sans-serif" font-size="14" font-weight="700" lengthAdjust="spacing" textLength="326.7726" x="236.8481" y="23.0059">Diagrama de Estados &#8212; Ciclo de Vida del Pedido</text><text fill="#000000" font-family="sans-serif" font-size="14" font-weight="700" lengthAdjust="spacing" textLength="164.9613" x="317.7537" y="39.8059">Sistema Braille Inclusivo</text></g><g class="entity" data-qualified-name="Pendiente" data-source-line="19" id="ent0001"><rect fill="#EFEFEF" height="70.3998" rx="12.5" ry="12.5" style="stroke:#545454;stroke-width:0.5;" width="163.9334" x="448.45" y="170.5999"/><line style="stroke:#545454;stroke-width:0.5;" x1="448.45" x2="612.3834" y1="197.3998" y2="197.3998"/><text fill="#000000" font-family="sans-serif" font-size="14" lengthAdjust="spacing" textLength="63.0417" x="498.8958" y="188.6058">Pendiente</text><text fill="#000000" font-family="sans-serif" font-size="14" lengthAdjust="spacing" textLength="86.3656" x="453.45" y="215.4057">Estado inicial.</text><text fill="#000000" font-family="sans-serif" font-size="14" lengthAdjust="spacing" textLength="143.9334" x="453.45" y="232.2057">Espera revisi&#243;n Admin.</text></g><g class="entity" data-qualified-name="Ap" data-source-line="21" id="ent0002"><rect fill="#EFEFEF" height="53.5999" rx="12.5" ry="12.5" style="stroke:#545454;stroke-width:0.5;" width="158.4874" x="302.18" y="316.9999"/><line style="stroke:#545454;stroke-width:0.5;" x1="302.18" x2="460.6674" y1="343.7998" y2="343.7998"/><text fill="#000000" font-family="sans-serif" font-size="14" lengthAdjust="spacing" textLength="60.7038" x="351.0718" y="335.0058">Aprobado</text><text fill="#000000" font-family="sans-serif" font-size="14" lengthAdjust="spacing" textLength="138.4874" x="307.18" y="361.8057">Admin valida solicitud.</text></g><g class="entity" data-qualified-name="EP" data-source-line="23" id="ent0003"><rect fill="#EFEFEF" height="53.5999" rx="12.5" ry="12.5" style="stroke:#545454;stroke-width:0.5;" width="185.7033" x="116.57" y="460.5999"/><line style="stroke:#545454;stroke-width:0.5;" x1="116.57" x2="302.2733" y1="487.3998" y2="487.3998"/><text fill="#000000" font-family="sans-serif" font-size="14" lengthAdjust="spacing" textLength="81.6897" x="168.5768" y="478.6058">En impresi&#243;n</text><text fill="#000000" font-family="sans-serif" font-size="14" lengthAdjust="spacing" textLength="165.7033" x="121.57" y="505.4057">Admin inicia impresi&#243;n 3D.</text></g><g class="entity" data-qualified-name="Comp" data-source-line="25" id="ent0004"><rect fill="#F1F1F1" height="70.3998" rx="12.5" ry="12.5" style="stroke:#545454;stroke-width:0.5;" width="148.3795" x="161.23" y="604.1999"/><line style="stroke:#545454;stroke-width:0.5;" x1="161.23" x2="309.6095" y1="630.9998" y2="630.9998"/><text fill="#000000" font-family="sans-serif" font-size="14" lengthAdjust="spacing" textLength="75.4737" x="197.6829" y="622.2058">Completado</text><text fill="#000000" font-family="sans-serif" font-size="14" lengthAdjust="spacing" textLength="128.3795" x="166.23" y="649.0057">Impresi&#243;n finalizada.</text><text fill="#000000" font-family="sans-serif" font-size="14" lengthAdjust="spacing" textLength="99.5816" x="166.23" y="665.8057">Ficha t&#225;ctil lista.</text></g><g class="entity" data-qualified-name="Rech" data-source-line="27" id="ent0005"><rect fill="#F1F1F1" height="53.5999" rx="12.5" ry="12.5" style="stroke:#545454;stroke-width:0.5;" width="188.8393" x="424" y="460.5999"/><line style="stroke:#545454;stroke-width:0.5;" x1="424" x2="612.8393" y1="487.3998" y2="487.3998"/><text fill="#000000" font-family="sans-serif" font-size="14" lengthAdjust="spacing" textLength="70.8117" x="483.0138" y="478.6058">Rechazado</text><text fill="#000000" font-family="sans-serif" font-size="14" lengthAdjust="spacing" textLength="168.8393" x="429" y="505.4057">Admin rechaza con motivo.</text></g><g class="start_entity" data-qualified-name=".start." data-source-line="17" id="ent0006"><ellipse cx="530.42" cy="70.5999" fill="#222222" rx="10" ry="10" style="stroke:#222222;stroke-width:1;"/></g><g class="end_entity" data-qualified-name=".end." data-source-line="39" id="ent0014"><ellipse cx="518.42" cy="763.9999" fill="none" rx="11" ry="11" style="stroke:#222222;stroke-width:1;"/><ellipse cx="518.42" cy="763.9999" fill="#222222" rx="6" ry="6" style="stroke:#222222;stroke-width:1;"/></g><g class="entity" data-qualified-name="GMN18" data-source-line="46" id="ent0019"><path d="M6,735.5999 L6,792.3999 A0,0 0 0 0 6,792.3999 L464.8406,792.3999 A0,0 0 0 0 464.8406,792.3999 L464.8406,745.5999 L454.8406,735.5999 L239.42,735.5999 L235.42,674.8799 L231.42,735.5999 L6,735.5999 A0,0 0 0 0 6,735.5999" fill="#FAFAFA" style="stroke:#181818;stroke-width:0.5;"/><path d="M454.8406,735.5999 L454.8406,745.5999 L464.8406,745.5999 L454.8406,735.5999" fill="#FAFAFA" style="stroke:#181818;stroke-width:0.5;"/><text fill="#000000" font-family="sans-serif" font-size="13" font-weight="700" lengthAdjust="spacing" textLength="274.4692" x="12" y="752.6769">Regla de negocio (Pedido::TRANSICIONES):</text><text fill="#000000" font-family="sans-serif" font-size="13" lengthAdjust="spacing" textLength="271.5573" x="12" y="768.2769">Solo se puede cancelar en estado "Pendiente".</text><text fill="#000000" font-family="sans-serif" font-size="13" lengthAdjust="spacing" textLength="437.8406" x="12" y="783.8769">Transici&#243;n estricta: Pendiente &#8594; Aprobado &#8594; En impresi&#243;n &#8594; Completado.</text></g><!--link *start* to Pendiente--><g class="link" data-entity-1="ent0006" data-entity-2="ent0001" data-link-type="dependency" data-source-line="17" id="lnk7"><path d="M530.42,80.7599 C530.42,98.9199 530.42,135.3399 530.42,165.3299" fill="none" id="*start*-to-Pendiente" style="stroke:#181818;stroke-width:1;"/><polygon fill="#181818" points="530.42,170.3299,534.42,161.3299,530.42,165.3299,526.42,161.3299,530.42,170.3299" style="stroke:#181818;stroke-width:1;stroke-linejoin:miter;stroke-miterlimit:10;"/><text fill="#000000" font-family="sans-serif" font-size="12" font-weight="700" lengthAdjust="spacing" textLength="74.0165" x="546.7621" y="122.7479">Crear pedido</text><text fill="#000000" font-family="sans-serif" font-size="12" lengthAdjust="spacing" textLength="104.7007" x="531.42" y="137.148">Solicitante confirma</text></g><!--link Pendiente to Ap--><g class="link" data-entity-1="ent0001" data-entity-2="ent0002" data-link-type="dependency" data-source-line="30" id="lnk8"><path d="M452.64,241.4399 C439.13,249.7899 426.04,259.6399 415.42,270.9999 C403.36,283.8899 396.6034,297.1536 391.1234,311.8836" fill="none" id="Pendiente-to-Ap" style="stroke:#181818;stroke-width:1;"/><polygon fill="#181818" points="389.38,316.5699,396.2671,309.5294,391.1234,311.8836,388.7692,306.74,389.38,316.5699" style="stroke:#181818;stroke-width:1;stroke-linejoin:miter;stroke-miterlimit:10;"/><text fill="#000000" font-family="sans-serif" font-size="12" font-weight="700" lengthAdjust="spacing" textLength="87.3486" x="416.42" y="283.1479">Admin aprueba</text></g><!--link Ap to EP--><g class="link" data-entity-1="ent0002" data-entity-2="ent0003" data-link-type="dependency" data-source-line="31" id="lnk9"><path d="M347.62,370.9399 C335.78,380.2099 322.44,390.7799 310.42,400.5999 C286.37,420.2499 263.3908,439.7795 243.4508,456.9295" fill="none" id="Ap-to-EP" style="stroke:#181818;stroke-width:1;"/><polygon fill="#181818" points="239.66,460.1899,249.0917,457.3538,243.4508,456.9295,243.8751,451.2886,239.66,460.1899" style="stroke:#181818;stroke-width:1;stroke-linejoin:miter;stroke-miterlimit:10;"/><text fill="#000000" font-family="sans-serif" font-size="12" font-weight="700" lengthAdjust="spacing" textLength="71.3525" x="315.014" y="412.7479">Admin inicia</text><text fill="#000000" font-family="sans-serif" font-size="12" lengthAdjust="spacing" textLength="78.5405" x="311.42" y="427.148">"En impresi&#243;n"</text></g><!--link EP to Comp--><g class="link" data-entity-1="ent0003" data-entity-2="ent0004" data-link-type="dependency" data-source-line="32" id="lnk10"><path d="M213.95,514.5299 C218.24,539.2899 223.8672,571.7131 228.5772,598.9231" fill="none" id="EP-to-Comp" style="stroke:#181818;stroke-width:1;"/><polygon fill="#181818" points="229.43,603.8499,231.8363,594.2995,228.5772,598.9231,223.9536,595.664,229.43,603.8499" style="stroke:#181818;stroke-width:1;stroke-linejoin:miter;stroke-miterlimit:10;"/><text fill="#000000" font-family="sans-serif" font-size="12" font-weight="700" lengthAdjust="spacing" textLength="81.3486" x="224.98" y="556.3479">Admin finaliza</text><text fill="#000000" font-family="sans-serif" font-size="12" lengthAdjust="spacing" textLength="73.2125" x="229.0481" y="570.748">"Completado"</text></g><!--link Pendiente to Rech--><g class="link" data-entity-1="ent0001" data-entity-2="ent0005" data-link-type="dependency" data-source-line="35" id="lnk11"><path d="M528.94,241.3699 C526.5,298.0599 521.9349,404.5445 519.7549,455.2245" fill="none" id="Pendiente-to-Rech" style="stroke:#181818;stroke-width:1;"/><polygon fill="#181818" points="519.54,460.2199,523.9231,451.4001,519.7549,455.2245,515.9305,451.0563,519.54,460.2199" style="stroke:#181818;stroke-width:1;stroke-linejoin:miter;stroke-miterlimit:10;"/><text fill="#000000" font-family="sans-serif" font-size="12" font-weight="700" lengthAdjust="spacing" textLength="85.3566" x="526.61" y="340.9479">Admin rechaza</text><text fill="#000000" font-family="sans-serif" font-size="12" lengthAdjust="spacing" textLength="66.0125" x="536.2821" y="355.348">(con motivo)</text></g><!--link Ap to Rech--><g class="link" data-entity-1="ent0002" data-entity-2="ent0005" data-link-type="dependency" data-source-line="36" id="lnk12"><path d="M387.47,370.9299 C392.83,389.3499 402.2,413.6499 417.42,430.5999 C427.99,442.3799 437.3244,449.7094 451.1644,457.6594" fill="none" id="Ap-to-Rech" style="stroke:#181818;stroke-width:1;"/><polygon fill="#181818" points="455.5,460.1499,449.6883,452.1985,451.1644,457.6594,445.7035,459.1355,455.5,460.1499" style="stroke:#181818;stroke-width:1;stroke-linejoin:miter;stroke-miterlimit:10;"/><text fill="#000000" font-family="sans-serif" font-size="12" font-weight="700" lengthAdjust="spacing" textLength="85.3566" x="418.42" y="419.7479">Admin rechaza</text></g><!--link EP to Rech--><g class="link" data-entity-1="ent0003" data-entity-2="ent0005" data-link-type="dependency" data-source-line="37" id="lnk13"><path d="M302.55,487.3999 C340.84,487.3999 380.15,487.3999 418.61,487.3999" fill="none" id="EP-to-Rech" style="stroke:#181818;stroke-width:1;"/><polygon fill="#181818" points="423.61,487.3999,414.61,483.3999,418.61,487.3999,414.61,491.3999,423.61,487.3999" style="stroke:#181818;stroke-width:1;stroke-linejoin:miter;stroke-miterlimit:10;"/><text fill="#000000" font-family="sans-serif" font-size="12" font-weight="700" lengthAdjust="spacing" textLength="85.3566" x="320.64" y="480.5479">Admin rechaza</text></g><!--link Pendiente to *end*--><g class="link" data-entity-1="ent0001" data-entity-2="ent0014" data-link-type="dependency" data-source-line="39" id="lnk15"><path d="M607.31,241.3399 C645.01,264.0099 682.42,297.8299 682.42,342.7999 C682.42,342.7999 682.42,342.7999 682.42,640.3999 C682.42,717.1899 570.5276,750.4951 534.0376,759.3951" fill="none" id="Pendiente-to-*end*" style="stroke:#181818;stroke-width:1;"/><polygon fill="#181818" points="529.18,760.5799,538.8715,762.3333,534.0376,759.3951,536.9759,754.5612,529.18,760.5799" style="stroke:#181818;stroke-width:1;stroke-linejoin:miter;stroke-miterlimit:10;"/><text fill="#000000" font-family="sans-serif" font-size="12" font-weight="700" lengthAdjust="spacing" textLength="108.0488" x="683.42" y="484.5479">Solicitante cancela</text><text fill="#000000" font-family="sans-serif" font-size="12" lengthAdjust="spacing" textLength="64.0205" x="705.4341" y="498.948">(SoftDelete)</text></g><!--link Comp to *end*--><g class="link" data-entity-1="ent0004" data-entity-2="ent0014" data-link-type="dependency" data-source-line="41" id="lnk16"><path d="M310.01,662.9999 C360.33,679.7099 427.35,704.8499 482.42,735.5999 C492.84,741.4199 499.7837,746.7359 506.7837,752.7359" fill="none" id="Comp-to-*end*" style="stroke:#181818;stroke-width:1;"/><polygon fill="#181818" points="510.58,755.9899,506.3499,747.0957,506.7837,752.7359,501.1435,753.1698,510.58,755.9899" style="stroke:#181818;stroke-width:1;stroke-linejoin:miter;stroke-miterlimit:10;"/></g><!--link Rech to *end*--><g class="link" data-entity-1="ent0005" data-entity-2="ent0014" data-link-type="dependency" data-source-line="42" id="lnk17"><path d="M518.42,514.2299 C518.42,572.7099 518.42,708.1899 518.42,747.5799" fill="none" id="Rech-to-*end*" style="stroke:#181818;stroke-width:1;"/><polygon fill="#181818" points="518.42,752.5799,522.42,743.5799,518.42,747.5799,514.42,743.5799,518.42,752.5799" style="stroke:#181818;stroke-width:1;stroke-linejoin:miter;stroke-miterlimit:10;"/></g><?plantuml-src XLH1Rjim4Bpp5Gldq4H0N3HDYbPm3CWoXRf8xS0sScZJ0otHDX6A52Ww0L8KwAaFAFg1lg5Fo4_oaYufAv830x4l97TsE3lBLNaZLC4Coo7NIgThetCErcmuiS9A3aF1LXXba76WfMMPBk7nvn-8HIgrExmIcGjAkEIPoFIrcedISamO62OaCenKAZUbkDM4b4-NBLXwip9wex9OIstW8A7ktqAKQxphJgWLB9aiUJjYcUM9LdOcxZcyEMs5c37whWcTaETfy9q0_WQxr_TwBBMeiD-70_e-EQCVzgEMGZ7fG4b21vJk1mabKb71wDla91bMC6qoRhR5dfwTHUzEoGz2Ni7v-JdGsJmQJcPkJRu6t-3uk8zsganmXP93w2twiU7CGE4zxhrUzD5dBV4YonmarMefJCwmNbzbazmgBTms4BOAkzUAbWKt30o_5QLu-ASWodAXkZLD9ogCNc1A1rW9KR7Bvh5mowHx0MMbPfCroLI1o0l3FRDde9Vx62evBIoy7JOiiSuBoMqjmcsXwKG8eoRD7ufxbZ4iBH7fce5z-8lNIP3uA5b3EkKOlAyvtMw7iz9bAf0p5uV3YUxM3PjFe_5i58ycOpg3Yz6OHXUukABJ-IZsIzV9fWckd-XU245GKRC29sp1We3WiOkYCqsqCYG8hjKp3md27DgRqE3hkdr6owzQxPJ67wCl-BukeZcTxjDdn6fjaTWxqH1l7N2yXuqBHrxqIobUwukWPoQvn-zWEs-RgPJBIiHCB-sGOtdyY13lmZQB-1lgpRRkyMGUGJpvV1d5k8W6qQU9Brnff5reQtKEUkdTn1aDWYbVIV-XKtobKw7XiFgcXM6xtqSXwWP0YHfA3iM6PqyY3N05l9gopbDfdIxYvuQf4ejo3nKHHgIMXQr1VVpr6-fnyvkTrlkJfhLTWddWwY3_0G00?></g></svg>