<svg width="704" height="604" viewBox="0 0 704 604" preserveAspectRatio="none" xmlns="http://www.w3.org/2000/svg" xmlns:xlink="http://www.w3.org/1999/xlink" overflow="hidden"><defs></defs><g><g><text font-family="Arial" font-weight="700" font-size="14" x="246.287" y="23.0059">UC-04: Gestionar Instituciones</text></g><g id="ent0002"><rect x="139.35" y="44.7999" rx="2.5" ry="2.5" width="550.82" height="546" stroke="#181818" fill="none"/><text font-family="Arial" font-weight="700" font-size="14" x="332.279" y="59.8059">Sistema Braille Inclusivo</text></g><g id="ent0003"><ellipse cx="259.663" cy="99.8045" rx="89.3728" ry="20.2746" stroke="#181818" stroke-width="0.5" fill="#F1F1F1"/><text font-family="Arial" font-size="14" x="184.189" y="104.704">Ver lista de instituciones</text></g><g id="ent0004"><ellipse cx="259.663" cy="174.799" rx="85.9935" ry="19.5987" stroke="#181818" stroke-width="0.5" fill="#F1F1F1"/><text font-family="Arial" font-size="14" x="188.082" y="179.699">Crear nueva institución</text></g><g id="ent0005"><ellipse cx="259.66" cy="245.798" rx="69.34" ry="16.268" stroke="#181818" stroke-width="0.5" fill="#F1F1F1"/><text font-family="Arial" font-size="14" x="208.308" y="250.698">Editar institución</text></g><g id="ent0006"><ellipse cx="259.656" cy="320.801" rx="104.306" ry="23.2612" stroke="#181818" stroke-width="0.5" fill="#F1F1F1"/><text font-family="Arial" font-size="14" x="167.466" y="325.701">Eliminar institución (papelera)</text></g><g id="ent0007"><ellipse cx="259.658" cy="401.801" rx="102.558" ry="22.9115" stroke="#181818" stroke-width="0.5" fill="#F1F1F1"/><text font-family="Arial" font-size="14" x="169.393" y="406.701">Ver papelera de instituciones</text></g><g id="ent0008"><ellipse cx="259.661" cy="477.796" rx="79.3815" ry="18.2763" stroke="#181818" stroke-width="0.5" fill="#F1F1F1"/><text font-family="Arial" font-size="14" x="195.864" y="482.696">Restaurar institución</text></g><g id="ent0009"><ellipse cx="259.659" cy="552.798" rx="96.9395" ry="21.7879" stroke="#181818" stroke-width="0.5" fill="#F1F1F1"/><text font-family="Arial" font-size="14" x="175.632" y="557.698">Eliminar permanentemente</text></g><g id="ent0010"><ellipse cx="577.572" cy="226.8" rx="96.6015" ry="21.7203" stroke="#181818" stroke-width="0.5" fill="#F1F1F1"/><text font-family="Arial" font-size="14" x="493.922" y="231.7">Validar datos de institución</text></g><g id="ent0011"><ellipse cx="577.571" cy="131.8" rx="84.651" ry="19.3302" stroke="#181818" stroke-width="0.5" fill="#F1F1F1"/><text font-family="Arial" font-size="14" x="507.55" y="136.7">Almacenar logo y PDF</text></g><g id="ent0001"><ellipse cx="49.1758" cy="290.9" rx="8" ry="8" stroke="#181818" stroke-width="0.5" fill="#F1F1F1"/><path d="M49.1758 298.9 49.1758 325.9M36.1758 306.9 62.1758 306.9M49.1758 325.9 36.1758 340.9M49.1758 325.9 62.1758 340.9" stroke="#181818" stroke-width="0.5" fill="none"/><text font-family="Arial" font-size="14" x="6" y="355.406">Administrador</text></g><g id="lnk12"><path d="M57.34 282.23C67.02 240.76 88.3 175.69 131.35 137.8 145.98 124.92 160.043 117.853 178.723 112.223" id="A-to-UC04a" stroke="#181818" fill="none"/><path d="M183.51 110.78 173.739 109.547 178.723 112.223 176.047 117.207 183.51 110.78Z" stroke="#181818" stroke-miterlimit="10" fill="#181818"/></g><g id="lnk13"><path d="M70.37 282.15C84.51 258.63 105.48 229.76 131.35 211.8 148.46 199.92 164.571 193.154 184.471 187.644" id="A-to-UC04b" stroke="#181818" fill="none"/><path d="M189.29 186.31 179.549 184.857 184.471 187.644 181.684 192.566 189.29 186.31Z" stroke="#181818" stroke-miterlimit="10" fill="#181818"/></g><g id="lnk14"><path d="M92.82 297.19C105.03 291 118.52 284.69 131.35 279.8 155.83 270.47 179.013 263.869 202.543 258.109" id="A-to-UC04c" stroke="#181818" fill="none"/><path d="M207.4 256.92 197.707 255.175 202.543 258.109 199.609 262.945 207.4 256.92Z" stroke="#181818" stroke-miterlimit="10" fill="#181818"/></g><g id="lnk15"><path d="M92.62 320.8C110.83 320.8 127.99 320.8 150.1 320.8" id="A-to-UC04d" stroke="#181818" fill="none"/><path d="M155.1 320.8 146.1 316.8 150.1 320.8 146.1 324.8 155.1 320.8Z" stroke="#181818" stroke-miterlimit="10" fill="#181818"/></g><g id="lnk16"><path d="M92.54 343.84C104.87 350.09 118.48 356.57 131.35 361.8 151.42 369.96 169.033 376.015 189.372 382.295" id="A-to-UC04e" stroke="#181818" fill="none"/><path d="M194.15 383.77 186.731 377.293 189.372 382.295 184.37 384.937 194.15 383.77Z" stroke="#181818" stroke-miterlimit="10" fill="#181818"/></g><g id="lnk17"><path d="M67.13 359.43C80.79 386.27 102.48 420.85 131.35 441.8 148.92 454.55 166.018 461.543 186.718 466.873" id="A-to-UC04f" stroke="#181818" fill="none"/><path d="M191.56 468.12 183.842 462.002 186.718 466.873 181.847 469.749 191.56 468.12Z" stroke="#181818" stroke-miterlimit="10" fill="#181818"/></g><g id="lnk18"><path d="M56.38 359.41C65.37 402.95 86.18 472.97 131.35 513.8 144.9 526.05 157.462 532.883 174.922 538.643" id="A-to-UC04g" stroke="#181818" fill="none"/><path d="M179.67 540.21 172.376 533.592 174.922 538.643 169.87 541.189 179.67 540.21Z" stroke="#181818" stroke-miterlimit="10" fill="#181818"/></g><g id="lnk19"><path d="M330.38 186.28C380.07 194.46 441.986 204.648 493.486 213.128" id="UC04b-to-UC04h" stroke="#181818" stroke-dasharray="7 7" fill="none"/><path d="M498.42 213.94 490.19 208.531 493.486 213.128 488.89 216.424 498.42 213.94Z" stroke="#181818" stroke-miterlimit="10" fill="#181818"/><text font-family="Arial" font-size="13" x="394.96" y="193.767">«include»</text></g><g id="lnk20"><path d="M334.33 164.77C385.38 157.82 448.086 149.284 498.916 142.364" id="UC04b-to-UC04i" stroke="#181818" stroke-dasharray="7 7" fill="none"/><path d="M503.87 141.69 494.413 138.941 498.916 142.364 495.492 146.867 503.87 141.69Z" stroke="#181818" stroke-miterlimit="10" fill="#181818"/><text font-family="Arial" font-size="13" x="394.96" y="145.527">«include»</text></g><g id="lnk21"><path d="M326.83 250.16C363.48 251.75 409.81 252.38 450.96 248.8 468.61 247.27 482.562 245.385 500.182 242.365" id="UC04c-to-UC04h" stroke="#181818" stroke-dasharray="7 7" fill="none"/><path d="M505.11 241.52 495.564 239.098 500.182 242.365 496.915 246.983 505.11 241.52Z" stroke="#181818" stroke-miterlimit="10" fill="#181818"/><text font-family="Arial" font-size="13" x="394.96" y="244.877">«include»</text></g></g></svg>