<svg width="1120" height="794" viewBox="0 0 1120 794" preserveAspectRatio="none" xmlns="http://www.w3.org/2000/svg" xmlns:xlink="http://www.w3.org/1999/xlink" overflow="hidden"><defs></defs><g><text font-family="Arial" font-weight="700" font-size="14" x="449.671" y="22.9951">UC-07: Solicitar Impresión</text><g id="cluster_Sistema Braille Inclusivo"><rect x="7" y="165.797" rx="2.5" ry="2.5" width="1107" height="623" stroke="#181818" fill="none"/><text font-family="Arial" font-weight="700" font-size="14" x="463.392" y="180.792">Sistema Braille Inclusivo</text></g><g id="elem_UC07a"><ellipse cx="322.1" cy="230.817" rx="113.1" ry="25.02" stroke="#181818" stroke-width="0.5" fill="#F1F1F1"/><text font-family="Arial" font-size="14" x="225.816" y="233.663">Confirmar diseño y solicitar</text></g><g id="elem_UC07b"><ellipse cx="968.015" cy="481.2" rx="130.015" ry="28.4031" stroke="#181818" stroke-width="0.5" fill="#F1F1F1"/><text font-family="Arial" font-size="14" x="853.712" y="484.047">Seleccionar recurso del catálogo</text></g><g id="elem_UC07c"><ellipse cx="430.03" cy="356.903" rx="83.5296" ry="19.1059" stroke="#181818" stroke-width="0.5" fill="#F1F1F1"/><text font-family="Arial" font-size="14" x="366.156" y="359.891">Registrar solicitud</text></g><g id="elem_UC07d"><ellipse cx="151.032" cy="481.203" rx="127.532" ry="27.9064" stroke="#181818" stroke-width="0.5" fill="#F1F1F1"/><text font-family="Arial" font-size="14" x="39.3532" y="484.05">Calcular consumo PLA (gramos)</text></g><g id="elem_UC07e"><ellipse cx="429.894" cy="481.476" rx="116.394" ry="25.6788" stroke="#181818" stroke-width="0.5" fill="#F1F1F1"/><text font-family="Arial" font-size="14" x="330.072" y="484.322">Estimar costo de producción</text></g><g id="elem_UC07f"><ellipse cx="167.964" cy="618.19" rx="144.964" ry="31.3928" stroke="#181818" stroke-width="0.5" fill="#F1F1F1"/><text font-family="Arial" font-size="14" x="37.9719" y="621.036">Generar coordenadas G-Code (X,Y,Z)</text></g><g id="elem_UC07g"><ellipse cx="167.989" cy="749.795" rx="102.99" ry="22.9979" stroke="#181818" stroke-width="0.5" fill="#F1F1F1"/><text font-family="Arial" font-size="14" x="82.677" y="752.641">Compilar archivo .gcode</text></g><g id="elem_UC07h"><ellipse cx="692.099" cy="481.317" rx="110.599" ry="24.5198" stroke="#181818" stroke-width="0.5" fill="#F1F1F1"/><text font-family="Arial" font-size="14" x="598.512" y="484.163">Asignar estado 'Pendiente'</text></g><g id="elem_UC07i"><ellipse cx="692.188" cy="618.334" rx="93.1876" ry="21.0375" stroke="#181818" stroke-width="0.5" fill="#F1F1F1"/><text font-family="Arial" font-size="14" x="617.727" y="621.181">Mostrar confirmación</text></g><g id="elem_UC07j"><ellipse cx="556.25" cy="230.847" rx="85.7497" ry="19.5499" stroke="#181818" stroke-width="0.5" fill="#F1F1F1"/><text font-family="Arial" font-size="14" x="490.225" y="233.694">Ver mis solicitudes</text></g><g id="elem_UC07k"><ellipse cx="813.909" cy="230.579" rx="136.909" ry="29.7817" stroke="#181818" stroke-width="0.5" fill="#F1F1F1"/><text font-family="Arial" font-size="14" x="692.348" y="233.425">Cancelar solicitud (solo Pendiente)</text></g><g id="elem_S"><ellipse cx="716.931" cy="51.2969" rx="8" ry="8" stroke="#181818" stroke-width="0.5" fill="#F1F1F1"/><path d="M716.931 59.2969 716.931 86.2969M703.931 67.2969 729.931 67.2969M716.931 86.2969 703.931 101.297M716.931 86.2969 729.931 101.297" stroke="#181818" stroke-width="0.5" fill="none"/><text font-family="Arial" font-size="14" x="680" y="115.792">Solicitante</text></g><g id="link_S_UC07a"><path d="M679.83 89.7469C627.91 101.457 531.26 125.497 453 157.797 419.66 171.557 389.044 188.519 363.324 203.959" id="S-to-UC07a" stroke="#181818" fill="none"/><path d="M358.18 207.047 367.955 205.844 362.467 204.473 363.838 198.985 358.18 207.047Z" stroke="#181818" fill="#181818"/></g><g id="link_S_UC07b"><path d="M754.2 87.5269C817.83 98.1669 943.21 123.087 969 157.797 1035.44 247.237 999.867 386.802 979.897 447.061" id="S-to-UC07b" stroke="#181818" fill="none"/><path d="M978.01 452.757 984.638 445.472 979.583 448.011 977.044 442.956 978.01 452.757Z" stroke="#181818" fill="#181818"/></g><g id="link_S_UC07j"><path d="M679.66 116.127C647.33 145.837 606.237 183.617 580.398 207.367" id="S-to-UC07j" stroke="#181818" fill="none"/><path d="M575.98 211.427 585.313 208.282 579.661 208.043 579.899 202.391 575.98 211.427Z" stroke="#181818" fill="#181818"/></g><g id="link_S_UC07k"><path d="M741.48 119.147C758.09 144.487 776.44 172.499 791.75 195.849" id="S-to-UC07k" stroke="#181818" fill="none"/><path d="M795.04 200.867 793.45 191.147 792.298 196.686 786.76 195.534 795.04 200.867Z" stroke="#181818" fill="#181818"/></g><g id="link_UC07a_UC07c"><path d="M342.57 255.417C363.5 279.447 391.54 311.632 410.47 333.372" id="UC07a-to-UC07c" stroke="#181818" stroke-dasharray="7 7" fill="none"/><path d="M414.41 337.897 411.517 328.483 411.127 334.126 405.483 333.736 414.41 337.897Z" stroke="#181818" fill="#181818"/><text font-family="Arial" font-size="13" x="386" y="303.864">«include»</text></g><g id="link_UC07c_UC07d"><path d="M393.24 373.937C345.52 394.887 267.304 429.234 211.874 453.574" id="UC07c-to-UC07d" stroke="#181818" stroke-dasharray="7 7" fill="none"/><path d="M206.38 455.987 216.229 456.031 210.958 453.977 213.012 448.706 206.38 455.987Z" stroke="#181818" fill="#181818"/><text font-family="Arial" font-size="13" x="316" y="418.864">«include»</text></g><g id="link_UC07c_UC07e"><path d="M430 375.877C430 396.907 430 425.747 430 449.347" id="UC07c-to-UC07e" stroke="#181818" stroke-dasharray="7 7" fill="none"/><path d="M430 455.347 434 446.347 430 450.347 426 446.347 430 455.347Z" stroke="#181818" fill="#181818"/><text font-family="Arial" font-size="13" x="431" y="418.864">«include»</text></g><g id="link_UC07d_UC07f"><path d="M154.4 509.287C157.21 531.607 160.451 557.344 163.381 580.624" id="UC07d-to-UC07f" stroke="#181818" stroke-dasharray="7 7" fill="none"/><path d="M164.13 586.577 166.975 577.148 163.506 581.616 159.037 578.147 164.13 586.577Z" stroke="#181818" fill="#181818"/><text font-family="Arial" font-size="13" x="162" y="552.864">«include»</text></g><g id="link_UC07f_UC07g"><path d="M168 649.987C168 673.477 168 699.317 168 720.427" id="UC07f-to-UC07g" stroke="#181818" stroke-dasharray="7 7" fill="none"/><path d="M168 726.427 172 717.427 168 721.427 164 717.427 168 726.427Z" stroke="#181818" fill="#181818"/><text font-family="Arial" font-size="13" x="169" y="692.864">«include»</text></g><g id="link_UC07c_UC07h"><path d="M465.06 374.187C511.77 396.027 589.075 432.176 640.705 456.316" id="UC07c-to-UC07h" stroke="#181818" stroke-dasharray="7 7" fill="none"/><path d="M646.14 458.857 639.681 451.421 641.611 456.739 636.293 458.668 646.14 458.857Z" stroke="#181818" fill="#181818"/><text font-family="Arial" font-size="13" x="569" y="418.864">«include»</text></g><g id="link_UC07h_UC07i"><path d="M692 505.817C692 531.647 692 566.707 692 591.127" id="UC07h-to-UC07i" stroke="#181818" stroke-dasharray="7 7" fill="none"/><path d="M692 597.127 696 588.127 692 592.127 688 588.127 692 597.127Z" stroke="#181818" fill="#181818"/><text font-family="Arial" font-size="13" x="693" y="552.864">«include»</text></g><g id="link_UC07c_UC07b"><path d="M486.87 370.727C529.34 380.387 588.8 393.917 641 405.797 721.9 424.217 808.21 443.884 874.02 458.874" id="UC07c-to-UC07b" stroke="#181818" stroke-dasharray="7 7" fill="none"/><path d="M879.87 460.207 871.983 454.308 874.995 459.096 870.206 462.108 879.87 460.207Z" stroke="#181818" fill="#181818"/><text font-family="Arial" font-size="13" x="713" y="418.864">«extend»</text></g></g></svg>