<svg width="608" height="673" viewBox="0 0 608 673" preserveAspectRatio="none" xmlns="http://www.w3.org/2000/svg" xmlns:xlink="http://www.w3.org/1999/xlink" overflow="hidden"><defs></defs><g><text font-family="Arial" font-weight="700" font-size="14" x="175.666" y="22.9951">UC-06: Traducir Texto a Braille</text><g id="cluster_Sistema Braille Inclusivo"><rect x="7" y="165.797" rx="2.5" ry="2.5" width="595" height="502" stroke="#181818" fill="none"/><text font-family="Arial" font-weight="700" font-size="14" x="207.392" y="180.792">Sistema Braille Inclusivo</text></g><g id="elem_UC06a"><ellipse cx="457.227" cy="225.642" rx="107.227" ry="23.8453" stroke="#181818" stroke-width="0.5" fill="#F1F1F1"/><text font-family="Arial" font-size="14" x="367.293" y="228.489">Ingresar texto en español</text></g><g id="elem_UC06b"><ellipse cx="181.8" cy="361.957" rx="158.8" ry="34.16" stroke="#181818" stroke-width="0.5" fill="#F1F1F1"/><text font-family="Arial" font-size="14" x="37.4214" y="364.803">Validar caracteres Código Braille Español</text></g><g id="elem_UC06c"><ellipse cx="181.926" cy="494.882" rx="98.4261" ry="22.0852" stroke="#181818" stroke-width="0.5" fill="#F1F1F1"/><text font-family="Arial" font-size="14" x="101.635" y="497.729">Traducir texto a Braille</text></g><g id="elem_UC06d"><ellipse cx="181.911" cy="622.979" rx="133.911" ry="29.1822" stroke="#181818" stroke-width="0.5" fill="#F1F1F1"/><text font-family="Arial" font-size="14" x="83.2012" y="618.578">Mostrar previsión visual 2D</text><text font-family="Arial" font-size="14" x="133.756" y="634.875">[PENDIENTE]</text></g><g id="elem_UC06e"><ellipse cx="181.885" cy="225.574" rx="111.885" ry="24.777" stroke="#181818" stroke-width="0.5" fill="#F1F1F1"/><text font-family="Arial" font-size="14" x="86.9097" y="228.421">Mostrar error de validación</text></g><g id="elem_UC06f"><ellipse cx="480.89" cy="361.575" rx="104.39" ry="23.278" stroke="#181818" stroke-width="0.5" fill="#F1F1F1"/><text font-family="Arial" font-size="14" x="394.046" y="364.421">Limitar longitud de texto</text></g><g id="elem_S"><ellipse cx="456.931" cy="51.2969" rx="8" ry="8" stroke="#181818" stroke-width="0.5" fill="#F1F1F1"/><path d="M456.931 59.2969 456.931 86.2969M443.931 67.2969 469.931 67.2969M456.931 86.2969 443.931 101.297M456.931 86.2969 469.931 101.297" stroke="#181818" stroke-width="0.5" fill="none"/><text font-family="Arial" font-size="14" x="420" y="115.792">Solicitante</text></g><g id="link_S_UC06a"><path d="M457 118.997C457 145.147 457 173.317 457 195.647" id="S-to-UC06a" stroke="#181818" fill="none"/><path d="M457 201.647 461 192.647 457 196.647 453 192.647 457 201.647Z" stroke="#181818" fill="#181818"/></g><g id="link_UC06a_UC06b"><path d="M413.73 247.877C368.12 270.107 301.264 302.679 249.564 327.869" id="UC06a-to-UC06b" stroke="#181818" stroke-dasharray="7 7" fill="none"/><path d="M244.17 330.497 254.013 330.151 248.665 328.307 250.509 322.959 244.17 330.497Z" stroke="#181818" fill="#181818"/><text font-family="Arial" font-size="13" x="346" y="293.864">«include»</text></g><g id="link_UC06b_UC06c"><path d="M182 395.857C182 419.957 182 445.897 182 466.647" id="UC06b-to-UC06c" stroke="#181818" stroke-dasharray="7 7" fill="none"/><path d="M182 472.647 186 463.647 182 467.647 178 463.647 182 472.647Z" stroke="#181818" fill="#181818"/><text font-family="Arial" font-size="13" x="183" y="438.864">«include»</text></g><g id="link_UC06c_UC06d"><path d="M182 516.887C182 537.907 182 564.307 182 587.547" id="UC06c-to-UC06d" stroke="#181818" stroke-dasharray="7 7" fill="none"/><path d="M182 593.547 186 584.547 182 588.547 178 584.547 182 593.547Z" stroke="#181818" fill="#181818"/><text font-family="Arial" font-size="13" x="183" y="559.864">«include»</text></g><g id="link_UC06a_UC06f"><path d="M461.13 249.837C465.55 274.527 471.473 307.581 475.873 332.161" id="UC06a-to-UC06f" stroke="#181818" stroke-dasharray="7 7" fill="none"/><path d="M476.93 338.067 479.282 328.503 476.049 333.145 471.407 329.913 476.93 338.067Z" stroke="#181818" fill="#181818"/><text font-family="Arial" font-size="13" x="470" y="293.864">«include»</text></g><g id="link_UC06e_UC06b"><path d="M182 251.067C182 272.487 182 297.907 182 321.637" id="UC06e-to-UC06b" stroke="#181818" stroke-dasharray="7 7" fill="none"/><path d="M182 327.637 186 318.637 182 322.637 178 318.637 182 327.637Z" stroke="#181818" fill="#181818"/><text font-family="Arial" font-size="13" x="183" y="293.864">«extend»</text></g></g></svg>