<svg width="688" height="596" viewBox="0 0 688 596" preserveAspectRatio="none" xmlns="http://www.w3.org/2000/svg" xmlns:xlink="http://www.w3.org/1999/xlink" overflow="hidden"><defs></defs><g><g><text font-family="Arial" font-weight="700" font-size="14" x="249.824" y="23.0059">UC-02: Gestionar Recursos</text></g><g id="ent0002"><rect x="139.35" y="44.7999" rx="2.5" ry="2.5" width="535.34" height="538" stroke="#181818" fill="none"/><text font-family="Arial" font-weight="700" font-size="14" x="324.539" y="59.8059">Sistema Braille Inclusivo</text></g><g id="ent0003"><ellipse cx="252.631" cy="97.7962" rx="79.3815" ry="18.2763" stroke="#181818" stroke-width="0.5" fill="#F1F1F1"/><text font-family="Arial" font-size="14" x="188.834" y="102.696">Ver lista de recursos</text></g><g id="ent0004"><ellipse cx="252.631" cy="169.796" rx="79.3815" ry="18.2763" stroke="#181818" stroke-width="0.5" fill="#F1F1F1"/><text font-family="Arial" font-size="14" x="188.834" y="174.696">Crear nuevo recurso</text></g><g id="ent0005"><ellipse cx="252.628" cy="242.796" rx="87.6777" ry="19.9355" stroke="#181818" stroke-width="0.5" fill="#F1F1F1"/><text font-family="Arial" font-size="14" x="179.1" y="247.695">Editar recurso existente</text></g><g id="ent0006"><ellipse cx="252.628" cy="319.796" rx="97.2778" ry="21.8556" stroke="#181818" stroke-width="0.5" fill="#F1F1F1"/><text font-family="Arial" font-size="14" x="168.222" y="324.695">Eliminar recurso (papelera)</text></g><g id="ent0007"><ellipse cx="252.628" cy="397.801" rx="92.1076" ry="20.8215" stroke="#181818" stroke-width="0.5" fill="#F1F1F1"/><text font-family="Arial" font-size="14" x="174.039" y="402.701">Ver papelera de recursos</text></g><g id="ent0008"><ellipse cx="252.631" cy="470.802" rx="73.0109" ry="17.0022" stroke="#181818" stroke-width="0.5" fill="#F1F1F1"/><text font-family="Arial" font-size="14" x="196.617" y="475.702">Restaurar recurso</text></g><g id="ent0009"><ellipse cx="252.63" cy="544.798" rx="96.9395" ry="21.7879" stroke="#181818" stroke-width="0.5" fill="#F1F1F1"/><text font-family="Arial" font-size="14" x="168.602" y="549.698">Eliminar permanentemente</text></g><g id="ent0010"><ellipse cx="562.798" cy="145.796" rx="91.0783" ry="20.6157" stroke="#181818" stroke-width="0.5" fill="#F1F1F1"/><text font-family="Arial" font-size="14" x="485.379" y="150.696">Validar datos del recurso</text></g><g id="ent0011"><ellipse cx="562.8" cy="243.798" rx="77.4398" ry="17.888" stroke="#181818" stroke-width="0.5" fill="#F1F1F1"/><text font-family="Arial" font-size="14" x="501.34" y="248.698">Almacenar archivos</text></g><g id="ent0012"><ellipse cx="562.799" cy="531.798" rx="95.8891" ry="21.5778" stroke="#181818" stroke-width="0.5" fill="#F1F1F1"/><text font-family="Arial" font-size="14" x="479.947" y="536.698">Eliminar archivos del disco</text></g><g id="ent0001"><ellipse cx="49.1758" cy="289.9" rx="8" ry="8" stroke="#181818" stroke-width="0.5" fill="#F1F1F1"/><path d="M49.1758 297.9 49.1758 324.9M36.1758 305.9 62.1758 305.9M49.1758 324.9 36.1758 339.9M49.1758 324.9 62.1758 339.9" stroke="#181818" stroke-width="0.5" fill="none"/><text font-family="Arial" font-size="14" x="6" y="354.406">Administrador</text></g><g id="lnk13"><path d="M57.07 281C66.57 238.88 87.71 172.47 131.35 133.8 145.95 120.86 160.241 113.938 178.901 108.628" id="A-to-UC02a" stroke="#181818" fill="none"/><path d="M183.71 107.26 173.959 105.876 178.901 108.628 176.148 113.571 183.71 107.26Z" stroke="#181818" stroke-miterlimit="10" fill="#181818"/></g><g id="lnk14"><path d="M69.1 281.09C83.1 256.24 104.39 225.11 131.35 205.8 147.83 194 163.393 187.362 182.663 181.992" id="A-to-UC02b" stroke="#181818" fill="none"/><path d="M187.48 180.65 177.737 179.213 182.663 181.992 179.884 186.919 187.48 180.65Z" stroke="#181818" stroke-miterlimit="10" fill="#181818"/></g><g id="lnk15"><path d="M92.64 298C104.97 292.06 118.56 285.86 131.35 280.8 152.22 272.54 170.879 266.264 191.489 259.954" id="A-to-UC02c" stroke="#181818" fill="none"/><path d="M196.27 258.49 186.493 257.3 191.489 259.954 188.835 264.949 196.27 258.49Z" stroke="#181818" stroke-miterlimit="10" fill="#181818"/></g><g id="lnk16"><path d="M92.41 319.8C110.75 319.8 128.06 319.8 150.1 319.8" id="A-to-UC02d" stroke="#181818" fill="none"/><path d="M155.1 319.8 146.1 315.8 150.1 319.8 146.1 323.8 155.1 319.8Z" stroke="#181818" stroke-miterlimit="10" fill="#181818"/></g><g id="lnk17"><path d="M92.67 341.54C104.99 347.48 118.58 353.69 131.35 358.8 151.83 367 170.003 373.263 190.312 379.683" id="A-to-UC02e" stroke="#181818" fill="none"/><path d="M195.08 381.19 187.704 374.663 190.312 379.683 185.293 382.291 195.08 381.19Z" stroke="#181818" stroke-miterlimit="10" fill="#181818"/></g><g id="lnk18"><path d="M68.44 358.42C82.34 383.88 103.78 416.04 131.35 435.8 148.68 448.21 165.518 455.002 185.688 460.202" id="A-to-UC02f" stroke="#181818" fill="none"/><path d="M190.53 461.45 182.814 455.33 185.688 460.202 180.816 463.077 190.53 461.45Z" stroke="#181818" stroke-miterlimit="10" fill="#181818"/></g><g id="lnk19"><path d="M57.24 358.42C66.88 400.37 88.15 466.64 131.35 505.8 143.96 517.23 155.235 523.646 171.415 529.356" id="A-to-UC02g" stroke="#181818" fill="none"/><path d="M176.13 531.02 168.974 524.253 171.415 529.356 166.312 531.797 176.13 531.02Z" stroke="#181818" stroke-miterlimit="10" fill="#181818"/></g><g id="lnk20"><path d="M328.08 163.88C345.11 162.53 363.13 161.11 379.91 159.8 411.32 157.35 440.815 155.074 471.215 152.734" id="UC02b-to-UC02h" stroke="#181818" stroke-dasharray="7 7" fill="none"/><path d="M476.2 152.35 466.92 149.052 471.215 152.734 467.534 157.029 476.2 152.35Z" stroke="#181818" stroke-miterlimit="10" fill="#181818"/><text font-family="Arial" font-size="13" x="380.91" y="151.607">«include»</text></g><g id="lnk21"><path d="M308.72 183.03C364.99 196.54 446.928 216.223 502.838 229.643" id="UC02b-to-UC02i" stroke="#181818" stroke-dasharray="7 7" fill="none"/><path d="M507.7 230.81 499.882 224.82 502.838 229.643 498.015 232.599 507.7 230.81Z" stroke="#181818" stroke-miterlimit="10" fill="#181818"/><text font-family="Arial" font-size="13" x="380.91" y="196.247">«include»</text></g><g id="lnk22"><path d="M327.65 253.53C362.14 255.48 402.95 253.3 436.91 238.8 454.25 231.39 452.31 220.74 466.91 208.8 486.5 192.77 505.978 179.666 524.798 167.926" id="UC02c-to-UC02h" stroke="#181818" stroke-dasharray="7 7" fill="none"/><path d="M529.04 165.28 519.287 166.65 524.798 167.926 523.521 173.437 529.04 165.28Z" stroke="#181818" stroke-miterlimit="10" fill="#181818"/><text font-family="Arial" font-size="13" x="380.91" y="234.877">«include»</text></g><g id="lnk23"><path d="M298.92 260.02C315.1 266.35 333.4 273.7 349.91 280.8 363.42 286.61 365.54 291.61 379.91 294.8 434.82 306.98 493.388 282.322 528.968 263.151" id="UC02c-to-UC02i" stroke="#181818" stroke-dasharray="7 7" fill="none"/><path d="M533.37 260.78 523.549 261.527 528.968 263.151 527.344 268.57 533.37 260.78Z" stroke="#181818" stroke-miterlimit="10" fill="#181818"/><text font-family="Arial" font-size="13" x="380.91" y="290.877">«include»</text></g><g id="lnk24"><path d="M348.18 540.81C386.31 539.2 425.194 537.56 463.224 535.96" id="UC02g-to-UC02j" stroke="#181818" stroke-dasharray="7 7" fill="none"/><path d="M468.22 535.75 459.06 532.132 463.224 535.96 459.396 540.125 468.22 535.75Z" stroke="#181818" stroke-miterlimit="10" fill="#181818"/><text font-family="Arial" font-size="13" x="380.91" y="533.217">«include»</text></g></g></svg>