<svg width="765" height="689" viewBox="0 0 765 689" preserveAspectRatio="none" xmlns="http://www.w3.org/2000/svg" xmlns:xlink="http://www.w3.org/1999/xlink" overflow="hidden"><defs></defs><g><g><text font-family="Arial" font-weight="700" font-size="14" x="282.588" y="23.0059">UC-08: Gestionar Solicitudes</text></g><g id="ent0002"><rect x="139.35" y="44.7999" rx="2.5" ry="2.5" width="611.76" height="557" stroke="#181818" fill="none"/><text font-family="Arial" font-weight="700" font-size="14" x="362.749" y="59.8059">Sistema Braille Inclusivo</text></g><g id="ent0003"><ellipse cx="283.123" cy="99.8045" rx="89.3728" ry="20.2746" stroke="#181818" stroke-width="0.5" fill="#F1F1F1"/><text font-family="Arial" font-size="14" x="207.649" y="104.704">Ver todas las solicitudes</text></g><g id="ent0004"><ellipse cx="283.122" cy="177.802" rx="103.962" ry="23.1924" stroke="#181818" stroke-width="0.5" fill="#F1F1F1"/><text font-family="Arial" font-size="14" x="191.31" y="182.702">Filtrar por estado o institución</text></g><g id="ent0005"><ellipse cx="631.499" cy="339.8" rx="99.0491" ry="22.2098" stroke="#181818" stroke-width="0.5" fill="#F1F1F1"/><text font-family="Arial" font-size="14" x="545.119" y="344.7">Actualizar estado de pedido</text></g><g id="ent0006"><ellipse cx="283.118" cy="256.803" rx="91.3677" ry="20.6735" stroke="#181818" stroke-width="0.5" fill="#F1F1F1"/><text font-family="Arial" font-size="14" x="205.369" y="261.703">Cambiar a 'En impresión'</text></g><g id="ent0007"><ellipse cx="283.116" cy="332.799" rx="88.6459" ry="20.1292" stroke="#181818" stroke-width="0.5" fill="#F1F1F1"/><text font-family="Arial" font-size="14" x="208.475" y="337.699">Cambiar a 'Completado'</text></g><g id="ent0008"><ellipse cx="283.12" cy="404.8" rx="73.9496" ry="17.1899" stroke="#181818" stroke-width="0.5" fill="#F1F1F1"/><text font-family="Arial" font-size="14" x="225.937" y="409.7">Rechazar solicitud</text></g><g id="ent0009"><ellipse cx="283.119" cy="484.804" rx="127.769" ry="27.9538" stroke="#181818" stroke-width="0.5" fill="#F1F1F1"/><text font-family="Arial" font-size="14" x="165.631" y="489.704">Parametrizar costo por gramo de PLA</text></g><g id="ent0010"><ellipse cx="631.502" cy="510.802" rx="103.612" ry="23.1224" stroke="#181818" stroke-width="0.5" fill="#F1F1F1"/><text font-family="Arial" font-size="14" x="540.076" y="515.702">Recalcular costos de pedidos</text></g><g id="ent0011"><ellipse cx="283.123" cy="566.804" rx="82.6729" ry="18.9346" stroke="#181818" stroke-width="0.5" fill="#F1F1F1"/><text font-family="Arial" font-size="14" x="215.419" y="571.705">Ver detalle del pedido</text></g><g id="ent0012"><ellipse cx="631.496" cy="430.799" rx="96.9458" ry="21.7892" stroke="#181818" stroke-width="0.5" fill="#F1F1F1"/><text font-family="Arial" font-size="14" x="547.461" y="435.699">Agregar motivo de rechazo</text></g><g id="ent0001"><ellipse cx="49.1758" cy="346.9" rx="8" ry="8" stroke="#181818" stroke-width="0.5" fill="#F1F1F1"/><path d="M49.1758 354.9 49.1758 381.9M36.1758 362.9 62.1758 362.9M49.1758 381.9 36.1758 396.9M49.1758 381.9 62.1758 396.9" stroke="#181818" stroke-width="0.5" fill="none"/><text font-family="Arial" font-size="14" x="6" y="411.406">Administrador</text></g><g id="lnk13"><path d="M52.13 338.28C56.96 285.09 73.67 189.74 131.35 136.8 149.32 120.3 168.553 111.951 192.213 106.611" id="A-to-UC08a" stroke="#181818" fill="none"/><path d="M197.09 105.51 187.43 103.59 192.213 106.611 189.191 111.393 197.09 105.51Z" stroke="#181818" stroke-miterlimit="10" fill="#181818"/></g><g id="lnk14"><path d="M60.22 338.2C71.58 302.13 93.61 249.37 131.35 218.8 148.74 204.71 165.767 196.806 187.387 190.716" id="A-to-UC08b" stroke="#181818" fill="none"/><path d="M192.2 189.36 182.453 187.95 187.387 190.716 184.622 195.65 192.2 189.36Z" stroke="#181818" stroke-miterlimit="10" fill="#181818"/></g><g id="lnk15"><path d="M51.32 415.51C55.21 468.04 70.82 560.22 131.35 602.8 232.97 674.27 297.18 652.85 410.89 602.8 463.29 579.73 470.58 558.12 497.89 507.8 523.29 460.99 494.51 433.29 527.89 391.8 539.72 377.09 552.279 368.294 569.119 360.345" id="A-to-UC08c" stroke="#181818" fill="none"/><path d="M573.64 358.21 563.794 358.435 569.119 360.345 567.209 365.669 573.64 358.21Z" stroke="#181818" stroke-miterlimit="10" fill="#181818"/></g><g id="lnk16"><path d="M80.22 338.29C94.21 322.7 112.04 305.82 131.35 294.8 153.74 282.02 175.537 274.602 200.167 268.932" id="A-to-UC08d" stroke="#181818" fill="none"/><path d="M205.04 267.81 195.372 265.931 200.167 268.932 197.167 273.727 205.04 267.81Z" stroke="#181818" stroke-miterlimit="10" fill="#181818"/></g><g id="lnk17"><path d="M92.53 368.54C102.32 366.64 112.7 364.64 122.35 362.8 152.29 357.08 180.486 351.771 208.775 346.471" id="A-to-UC08e" stroke="#181818" fill="none"/><path d="M213.69 345.55 204.107 343.276 208.775 346.471 205.581 351.139 213.69 345.55Z" stroke="#181818" stroke-miterlimit="10" fill="#181818"/></g><g id="lnk18"><path d="M92.72 381.93C127.38 386.12 171.936 391.49 211.646 396.29" id="A-to-UC08f" stroke="#181818" fill="none"/><path d="M216.61 396.89 208.155 391.839 211.646 396.29 207.195 399.781 216.61 396.89Z" stroke="#181818" stroke-miterlimit="10" fill="#181818"/></g><g id="lnk19"><path d="M92.82 414.62C104.71 423.8 118.03 432.94 131.35 439.8 150.79 449.79 168.021 456.461 189.101 462.941" id="A-to-UC08g" stroke="#181818" fill="none"/><path d="M193.88 464.41 186.453 457.942 189.101 462.941 184.102 465.589 193.88 464.41Z" stroke="#181818" stroke-miterlimit="10" fill="#181818"/></g><g id="lnk20"><path d="M60.72 415.4C72.3 450.46 94.35 500.97 131.35 529.8 152.19 546.03 174.272 554.256 199.632 559.456" id="A-to-UC08i" stroke="#181818" fill="none"/><path d="M204.53 560.46 196.517 554.734 199.632 559.456 194.91 562.571 204.53 560.46Z" stroke="#181818" stroke-miterlimit="10" fill="#181818"/></g><g id="lnk21"><path d="M347.25 271.92C408.13 286.51 495.138 307.365 557.608 322.335" id="UC08d-to-UC08c" stroke="#181818" stroke-dasharray="7 7" fill="none"/><path d="M562.47 323.5 554.65 317.513 557.608 322.335 552.786 325.293 562.47 323.5Z" stroke="#181818" stroke-miterlimit="10" fill="#181818"/><text font-family="Arial" font-size="13" x="442.89" y="291.887">«extend»</text></g><g id="lnk22"><path d="M371.53 334.56C420.53 335.55 476.791 336.689 527.421 337.709" id="UC08e-to-UC08c" stroke="#181818" stroke-dasharray="7 7" fill="none"/><path d="M532.42 337.81 523.502 333.629 527.421 337.709 523.341 341.628 532.42 337.81Z" stroke="#181818" stroke-miterlimit="10" fill="#181818"/><text font-family="Arial" font-size="13" x="442.89" y="332.167">«extend»</text></g><g id="lnk23"><path d="M341.71 393.99C399.9 383.07 485.226 367.062 549.326 355.032" id="UC08f-to-UC08c" stroke="#181818" stroke-dasharray="7 7" fill="none"/><path d="M554.24 354.11 544.657 351.839 549.326 355.032 546.132 359.701 554.24 354.11Z" stroke="#181818" stroke-miterlimit="10" fill="#181818"/><text font-family="Arial" font-size="13" x="442.89" y="362.557">«extend»</text></g><g id="lnk24"><path d="M331.36 418.24C369.42 428.8 419.92 442.16 440.89 444.8 466.03 447.95 472.59 446.13 497.89 444.8 513.26 443.99 524.623 443.133 540.383 441.603" id="UC08f-to-UC08j" stroke="#181818" stroke-dasharray="7 7" fill="none"/><path d="M545.36 441.12 536.016 438.008 540.383 441.603 536.789 445.971 545.36 441.12Z" stroke="#181818" stroke-miterlimit="10" fill="#181818"/><text font-family="Arial" font-size="13" x="441.89" y="440.877">«include»</text></g><g id="lnk25"><path d="M404.3 493.82C446.21 496.96 487.724 500.075 527.604 503.075" id="UC08g-to-UC08h" stroke="#181818" stroke-dasharray="7 7" fill="none"/><path d="M532.59 503.45 523.915 498.786 527.604 503.075 523.315 506.763 532.59 503.45Z" stroke="#181818" stroke-miterlimit="10" fill="#181818"/><text font-family="Arial" font-size="13" x="441.89" y="493.097">«include»</text></g></g></svg>